<?xml version="1.0" encoding="utf-8"?>
<!-- Generator: Adobe Illustrator 27.0.1, SVG Export Plug-In . SVG Version: 6.00 Build 0)  -->
<svg version="1.1" id="Capa_1" xmlns="http://www.w3.org/2000/svg" xmlns:xlink="http://www.w3.org/1999/xlink" x="0px" y="0px"
	 viewBox="0 0 425.2 425.2" style="enable-background:new 0 0 425.2 425.2;" xml:space="preserve">
<style type="text/css">
	.st0{fill:#F15939;}
	.st1{fill:none;stroke:#652A00;stroke-width:8;stroke-miterlimit:10;}
</style>
<g>
	<g>
		<g>
			<path class="st0" d="M380.96,212.61c0,92.98-75.37,168.35-168.35,168.35c-92.99,0-168.36-75.37-168.36-168.35
				c0-92.99,75.37-168.36,168.36-168.36C305.59,44.24,380.96,119.61,380.96,212.61z"/>
			<path class="st1" d="M380.96,212.61c0,92.98-75.37,168.35-168.35,168.35c-92.99,0-168.36-75.37-168.36-168.35
				c0-92.99,75.37-168.36,168.36-168.36C305.59,44.24,380.96,119.61,380.96,212.61z"/>
		</g>
		<path class="st1" d="M174.05,49.53c-92.12,92.13-96.28,237.08-9.27,324.09"/>
		<path class="st1" d="M44.39,193.71c58.24,72.66,217.58,76.63,336.57,5.23"/>
		<path class="st1" d="M76.85,114.11c0,0-14.53,72.27,27.77,72.27c49.37,0,70.73-21.59,117.46-54.2
			C284.45,88.64,341.3,104.4,341.3,104.4"/>
		<path class="st1" d="M55.7,274.97c0,0,44.3-15.2,105.12,31.73c60.81,46.95,107.1,60.83,145.43,46.28"/>
	</g>
</g>
</svg>
